<svg width="238" height="648" viewBox="0 0 238 648" fill="none" xmlns="http://www.w3.org/2000/svg">
<g opacity="0.2">
<path d="M16.7726 531.779C12.6089 534.183 6.91582 535.809 -1.33584 536.811C-23.3298 539.309 -54.62 526.737 -87.6792 513.424C-105.863 506.13 -124.645 498.571 -142.046 493.536C-169.717 482.264 -204.757 483.719 -238.681 485.106C-263.464 486.129 -286.876 487.072 -307.513 483.465L-307.556 483.456C-323.231 480.441 -333.17 474.521 -337.93 465.373C-347.228 447.526 -335.305 419.97 -321.466 388.053L-320.145 384.985C-309.924 361.258 -297.733 330.36 -280.545 284.818L-279.041 281.035C-263.193 241.112 -243.448 191.416 -206.443 146.836C-135.478 52.0796 -34.9513 35.6924 10.6397 54.5128C60.6503 78.407 82.561 121.778 94.4589 220.343C106.701 323.182 65.1926 432.111 46.7727 474.163C38.1575 489.507 33.919 501.138 30.8447 509.624C26.9127 520.367 24.3733 527.391 16.7726 531.779ZM-306.463 479.606C-286.28 483.136 -263.094 482.187 -238.551 481.201C-204.231 479.789 -168.711 478.328 -140.44 489.864C-123.012 494.883 -104.129 502.485 -85.8883 509.814C-53.286 522.916 -22.4807 535.294 -1.5585 532.941C18.992 530.396 20.9978 524.9 26.9621 508.578C30.1042 499.952 34.4091 488.113 43.0787 472.669C61.2542 431.097 102.483 322.974 90.3586 221.049C78.646 123.903 57.2595 81.2458 8.64903 58.0345C-35.6005 39.7952 -133.656 56.0096 -203.273 148.971C-239.891 193.124 -259.501 242.472 -275.257 282.104L-276.733 285.871C-293.934 331.454 -306.139 362.394 -316.401 386.179L-317.722 389.246C-331.184 420.268 -342.769 447.053 -334.281 463.368C-330.023 471.518 -320.932 476.809 -306.463 479.606Z" fill="#B5B0CA"/>
<path d="M-2.19584 512.026C-7.9523 515.349 -15.0126 517.189 -25.1128 519.055L-25.3098 519.101C-45.6467 521.048 -68.6176 510.688 -92.9022 499.731C-109.492 492.229 -126.652 484.513 -144.757 479.613C-171.695 470.256 -200.404 467.446 -228.136 464.716C-246.77 462.9 -264.384 461.174 -280.948 457.588L-281.261 457.498C-319.227 442.849 -310.34 421.586 -294.252 382.982C-292.502 378.786 -290.657 374.366 -288.776 369.687C-284.64 361.233 -280.365 351.987 -275.82 342.178C-255.651 298.574 -227.986 238.849 -177.613 174.249C-113.404 99.864 -39.6308 84.2482 5.0413 101.735C50.5617 120.562 63.9834 167.106 74.0526 251.984C81.7675 339.238 49.0755 417.49 31.5037 459.526L29.5516 464.211C15.3169 493.442 8.98174 505.572 -2.19584 512.026ZM-25.4766 515.198C2.07614 510.067 4.84508 505.893 25.8339 462.935L27.7462 458.374C45.1692 416.661 77.6049 338.998 70.0095 252.726C60.1258 169.266 47.0884 123.517 3.23716 105.386C-39.9949 88.4576 -111.721 103.875 -174.44 176.518C-224.455 240.64 -251.97 300.11 -272.101 343.521C-276.646 353.331 -280.921 362.577 -285.015 370.973C-286.857 375.527 -288.702 379.947 -290.437 384.169C-306.539 422.815 -313.917 440.495 -279.585 453.818C-263.291 457.324 -245.848 459.013 -227.397 460.832C-199.411 463.551 -170.488 466.408 -143.223 475.881C-124.948 480.818 -107.631 488.612 -90.8982 496.168C-67.1705 506.87 -44.7138 516.985 -25.4766 515.198Z" fill="#B5B0CA"/>
<path d="M-18.2078 495.65C-25.557 499.893 -33.7548 501.44 -44.5978 502.278C-63.2839 502.696 -83.9744 493.189 -105.864 483.154C-118.858 477.167 -132.323 471.012 -146.35 466.334C-166.914 458.143 -188.423 453.413 -209.195 448.799C-226.244 445.018 -242.341 441.467 -256.378 436.32L-256.578 436.232C-288.281 420.171 -277.841 398.113 -258.87 358.048L-258.654 357.584L-254.912 350.578C-233.56 310.765 -204.315 256.228 -153.73 199.741C-92.4115 135.836 -32.945 130.548 -0.645689 145.384C33.8517 161.187 49.9503 199.848 54.9318 278.818C57.4425 334.406 43.4305 393.773 13.3135 455.253C1.06359 477.983 -7.70086 489.584 -18.2078 495.65ZM-254.574 432.669C-240.794 437.693 -224.853 441.233 -207.989 444.951C-187.062 449.577 -165.395 454.386 -144.646 462.639C-130.505 467.319 -116.954 473.56 -103.86 479.59C-82.398 489.466 -62.1219 498.771 -44.4677 498.373C-19.7594 496.512 -10.2214 490.768 9.66217 453.768C39.439 392.925 53.3092 334.217 50.8273 279.324C45.9341 201.862 30.4475 164.068 -2.67902 148.896C-36.192 133.507 -94.9696 143.99 -150.809 202.155C-200.979 258.199 -230.088 312.455 -251.316 352.094L-255.194 359.383C-274.3 399.729 -283.047 418.2 -254.574 432.669Z" fill="#B5B0CA"/>
<path d="M-30.9316 479.677C-39.1471 484.42 -48.3418 486.306 -59.8542 486.242L-59.9248 486.249C-77.5575 485.652 -96.7842 476.486 -117.125 466.811C-126.538 462.315 -136.279 457.705 -146.262 453.708C-160.14 447.418 -174.386 442.426 -188.147 437.628C-205.043 431.725 -221.041 426.151 -233.522 418.988C-257.583 402.547 -248.467 381.423 -230.646 348.529C-211.445 316.092 -180.667 267.889 -134.569 223.312C-88.686 183.977 -45.6901 169.456 -13.4036 182.334C21.4205 196.186 39.7372 239.463 36.8593 301.078C37.2054 371.438 7.36753 430.046 -1.79382 446.316C-11.7907 463.203 -20.5923 473.708 -30.9316 479.677ZM-59.4977 482.342C-37.9869 482.429 -24.3877 476.814 -5.36419 444.649C3.64699 428.635 33.105 370.789 32.7492 301.316C35.5462 241.239 18.0618 199.21 -15.2504 185.976C-46.0249 173.716 -87.4286 187.962 -131.895 226.072C-177.508 270.199 -208.08 318.047 -227.104 350.212C-245.456 384.056 -251.848 401.574 -231.116 415.734C-219.05 422.629 -203.237 428.141 -186.484 433.99C-172.623 438.832 -158.306 443.818 -144.357 450.167C-134.346 454.148 -124.561 458.835 -115.105 463.34C-95.1226 472.781 -76.2676 481.755 -59.4977 482.342Z" fill="#B5B0CA"/>
<path d="M-41.6281 464.571C-50.3466 469.605 -59.9368 471.515 -71.4045 470.884L-71.7308 470.835C-120.565 459.885 -197.077 414.419 -211.916 405.431L-212.204 405.19C-228.737 389.589 -222.393 371.15 -204.934 342.599C-188.032 316.505 -159.501 278.479 -119.484 245.31C-82.0057 215.876 -46.8578 206.09 -20.466 217.728C8.8379 230.667 23.4859 267.59 19.7578 319.019C18.2565 367.4 0.536925 411.827 -15.5594 437.252C-24.0799 450.373 -32.3786 459.231 -41.6281 464.571ZM-70.6659 467C-48.7371 468.133 -34.7191 459.565 -19.034 435.428C-3.22478 410.474 14.1575 366.819 15.6595 319.148C19.2224 269.949 4.97821 233.404 -22.4274 221.3C-47.3351 210.297 -80.9467 219.84 -116.991 248.208C-156.521 280.994 -184.72 318.627 -201.46 344.423C-218.181 371.734 -223.987 388.202 -209.339 402.214C-166.712 428.033 -107.978 458.583 -70.6659 467Z" fill="#B5B0CA"/>
<path d="M-51.634 450.725C-60.9673 456.114 -70.672 457.955 -79.9469 456.023C-116.885 448.576 -168.653 417.766 -191.975 394.731C-196.859 389.112 -198.664 381.919 -197.43 373.344C-193.615 346.91 -160.279 306.752 -108.219 265.918C-77.8526 244.624 -49.4832 238.65 -28.2644 249.072C-4.23058 260.885 7.31734 291.599 3.41324 333.302C-2.27159 386.505 -21.1434 429.258 -47.0302 447.728C-48.5483 448.842 -50.0971 449.838 -51.634 450.725ZM-94.1862 261.443C-98.0425 263.669 -101.936 266.154 -105.851 268.923C-156.937 308.991 -189.701 348.14 -193.325 373.549C-194.411 381.09 -192.881 387.29 -188.78 392.005C-165.92 414.562 -115.025 444.893 -78.7262 452.201C-69.125 454.181 -58.9271 451.581 -49.2719 444.685C-24.3883 426.929 -6.18631 385.275 -0.631986 333.265C3.0628 293.717 -8.02114 263.548 -30.3404 252.575C-47.4438 244.183 -69.7912 247.358 -94.1862 261.443Z" fill="#B5B0CA"/>
<path d="M-58.8388 436.245C-67.5014 441.247 -76.5976 443.109 -85.3967 441.615C-116.745 436.363 -157.771 410.671 -173.139 386.635L-173.168 386.584C-186.442 363.916 -155.648 321.227 -99.953 285.141C-75.8102 270.49 -53.3894 267.441 -36.7365 276.602C-17.6375 287.096 -8.73266 311.813 -12.29 344.436C-16.9685 384.281 -32.5077 417.383 -53.8865 433.013C-55.5442 434.208 -57.1901 435.293 -58.8388 436.245ZM-169.565 384.436C-154.623 407.735 -114.815 432.673 -84.3464 437.755C-75.0506 439.335 -65.3495 436.649 -56.2266 429.992C-35.8231 415.061 -20.9258 383.041 -16.3792 344.323C-12.9879 313.219 -21.2442 289.755 -39.027 279.992C-54.3488 271.588 -75.2452 274.502 -97.9349 288.313C-150.741 322.563 -181.563 363.912 -169.565 384.436Z" fill="#B5B0CA"/>
<path d="M-65.227 422.276C-72.7999 426.648 -80.7803 428.442 -88.6214 427.445C-116.113 424.034 -146.628 402.609 -155.319 380.65C-163.289 359.359 -136.485 325.312 -94.4271 303.165C-75.8323 293.683 -58.6274 292.765 -45.9493 300.526C-31.4231 309.424 -24.7016 328.487 -27.5706 352.817C-31.0579 381.366 -43.1686 406.016 -59.9555 418.758C-61.681 420.093 -63.4386 421.243 -65.227 422.276ZM-99.1036 310.101C-135.598 331.171 -158.327 360.663 -151.435 379.052C-143.326 399.551 -113.574 420.365 -87.7549 423.59C-79.248 424.643 -70.4803 421.953 -62.3369 415.794C-46.4546 403.744 -35.0006 380.152 -31.6318 352.687C-28.9304 329.81 -35.0314 312.016 -48.3543 303.847C-59.772 296.848 -75.5334 297.815 -92.7016 306.541C-94.8547 307.716 -97.0078 308.891 -99.1036 310.101Z" fill="#B5B0CA"/>
</g>
</svg>
