<svg width="529" height="510" viewBox="0 0 529 510" fill="none" xmlns="http://www.w3.org/2000/svg">
<g clip-path="url(#clip0_505_457)">
<path d="M510.468 198.2C452.663 99.189 295.862 134.45 263.84 86.2967C247.437 61.6744 229.09 33.0551 202.476 18.1939C177.108 3.96137 147.695 -1.03189 122.053 0.842063C30.4823 7.54323 -8.33544 89.4753 9.25294 179.449C32.7357 299.465 139.12 422.066 265.5 422.92C331.608 423.419 394.774 399.698 444.23 366.334L445.333 365.587C494.789 331.915 554.611 273.787 510.468 198.2Z" fill="#B5B0CA"/>
<path d="M61.7332 205.399H55.3051C48.4071 205.399 41.7916 208.14 36.914 213.018C32.0364 217.895 29.2961 224.511 29.2961 231.409V374.138C29.2961 381.037 32.0364 387.652 36.914 392.53C41.7916 397.408 48.4071 400.148 55.3051 400.148H143.496C150.394 400.148 157.01 397.408 161.887 392.53C166.765 387.652 169.505 381.037 169.505 374.138" stroke="#263238" stroke-width="1.10311" stroke-linecap="round" stroke-linejoin="round" stroke-dasharray="4.41 4.41"/>
<path d="M162.318 70.724V42.5316C162.318 38.3133 163.991 34.2671 166.97 31.281C169.95 28.2948 173.992 26.6125 178.21 26.603H292.896C297.121 26.603 301.172 28.2812 304.159 31.2684C307.146 34.2556 308.824 38.3071 308.824 42.5316" stroke="#263238" stroke-width="1.10311" stroke-linecap="round" stroke-linejoin="round" stroke-dasharray="4.41 4.41"/>
<path d="M265.5 510.19C390.947 510.19 492.643 495.98 492.643 478.451C492.643 460.922 390.947 446.713 265.5 446.713C140.052 446.713 38.3572 460.922 38.3572 478.451C38.3572 495.98 140.052 510.19 265.5 510.19Z" fill="#B5B0CA"/>
<path d="M479.621 108.547V322.107C479.621 329.088 476.848 335.783 471.913 340.721C466.978 345.658 460.284 348.434 453.303 348.437H77.697C70.7161 348.434 64.0222 345.658 59.0871 340.721C54.152 335.783 51.3796 329.088 51.3796 322.107V108.547C51.3796 107.918 51.3796 107.361 51.4627 106.697C51.925 100.053 54.8896 93.8327 59.7584 89.2895C64.6272 84.7463 71.0378 82.2187 77.697 82.2168H453.303C459.97 82.2196 466.387 84.7537 471.257 89.3068C476.127 93.86 479.087 100.092 479.538 106.744C479.597 107.314 479.621 107.93 479.621 108.547Z" fill="white" stroke="#263238" stroke-width="1.10311" stroke-linecap="round" stroke-linejoin="round"/>
<path d="M64.1885 116.565H468.152V313.84C468.152 320.383 465.553 326.657 460.927 331.284C456.3 335.91 450.026 338.51 443.483 338.51H88.8691C82.3266 338.51 76.052 335.91 71.4257 331.284C66.7994 326.657 64.2003 320.383 64.2003 313.84V116.565H64.1885Z" fill="#263238"/>
<path opacity="0.2" d="M468.164 116.565V313.84C468.198 320.346 465.648 326.6 461.073 331.226C456.498 335.852 450.274 338.472 443.768 338.51H88.5844C82.0784 338.472 75.8537 335.852 71.2789 331.226C66.7041 326.6 64.1536 320.346 64.1883 313.84V116.565H468.164Z" fill="white"/>
<path d="M479.537 106.744H51.4626C51.925 100.101 54.8896 93.8801 59.7584 89.3368C64.6272 84.7936 71.0378 82.2661 77.697 82.2642H453.303C459.962 82.2661 466.373 84.7936 471.242 89.3368C476.111 93.8801 479.075 100.101 479.537 106.744Z" fill="#F13939" stroke="#263238" stroke-width="1.10311" stroke-miterlimit="10"/>
<path d="M104.062 94.4568C104.062 95.3787 103.788 96.2799 103.276 97.0464C102.764 97.813 102.036 98.4104 101.184 98.7632C100.333 99.116 99.3956 99.2083 98.4914 99.0284C97.5873 98.8486 96.7568 98.4046 96.1049 97.7528C95.4531 97.1009 95.0092 96.2703 94.8293 95.3662C94.6495 94.462 94.7418 93.5248 95.0945 92.6731C95.4473 91.8214 96.0447 91.0934 96.8112 90.5812C97.5777 90.069 98.4789 89.7957 99.4007 89.7957C100.637 89.7957 101.822 90.2867 102.697 91.1609C103.571 92.035 104.062 93.2206 104.062 94.4568Z" fill="#263238"/>
<path d="M123.773 94.4568C123.773 95.3787 123.5 96.2799 122.988 97.0464C122.475 97.813 121.748 98.4104 120.896 98.7632C120.044 99.116 119.107 99.2083 118.203 99.0284C117.299 98.8486 116.468 98.4046 115.816 97.7528C115.164 97.1009 114.721 96.2703 114.541 95.3662C114.361 94.462 114.453 93.5248 114.806 92.6731C115.159 91.8214 115.756 91.0934 116.523 90.5812C117.289 90.069 118.19 89.7957 119.112 89.7957C120.348 89.7957 121.534 90.2867 122.408 91.1609C123.282 92.035 123.773 93.2206 123.773 94.4568Z" fill="#263238"/>
<path d="M138.823 99.118C141.398 99.118 143.484 97.0311 143.484 94.4568C143.484 91.8825 141.398 89.7957 138.823 89.7957C136.249 89.7957 134.162 91.8825 134.162 94.4568C134.162 97.0311 136.249 99.118 138.823 99.118Z" fill="#263238"/>
<path d="M468.152 116.565V313.84C468.152 320.383 465.553 326.657 460.927 331.284C456.3 335.91 450.026 338.51 443.483 338.51H88.8692C83.159 338.509 77.6261 336.526 73.214 332.901C68.8019 329.277 65.7839 324.233 64.6748 318.631V318.56C64.3733 316.997 64.2224 315.408 64.2241 313.816V116.565H468.152Z" stroke="#263238" stroke-width="1.10311" stroke-miterlimit="10"/>
<path d="M467.772 147.07C466.043 146.098 464.203 145.338 462.293 144.804L460.075 134.901H450.658L448.464 144.804C446.543 145.328 444.695 146.089 442.961 147.07L434.458 141.626L427.804 148.256L433.153 156.76C432.174 158.494 431.413 160.342 430.888 162.263L420.985 164.457V173.874L430.888 176.092C431.407 178.023 432.168 179.88 433.153 181.619L427.709 190.183L434.375 196.836L442.926 191.392C444.655 192.374 446.5 193.139 448.417 193.669L450.623 203.561H460.004L462.21 193.669C464.121 193.134 465.961 192.369 467.689 191.392L468.128 191.677V146.833L467.772 147.07ZM455.39 181.465C452.983 181.465 450.63 180.751 448.629 179.413C446.628 178.076 445.068 176.175 444.147 173.95C443.227 171.726 442.986 169.279 443.457 166.918C443.927 164.557 445.087 162.389 446.79 160.687C448.493 158.986 450.663 157.828 453.024 157.36C455.385 156.892 457.832 157.134 460.055 158.057C462.279 158.98 464.178 160.542 465.514 162.544C466.85 164.547 467.561 166.901 467.559 169.308C467.559 170.906 467.244 172.487 466.632 173.963C466.021 175.439 465.124 176.78 463.994 177.909C462.864 179.038 461.522 179.933 460.046 180.543C458.57 181.153 456.988 181.467 455.39 181.465Z" fill="#263238"/>
<path d="M298.056 156.617V136.763L277.182 132.126C276.056 128.092 274.464 124.203 272.438 120.538L274.964 116.565H176.408L178.839 120.431C176.789 124.08 175.195 127.968 174.095 132.007L153.21 136.656V156.558L174.095 161.219C175.196 165.288 176.789 169.207 178.839 172.89L167.371 190.93L181.425 204.973L199.452 193.492C203.109 195.549 206.999 197.162 211.039 198.295L215.688 219.11H235.494L240.167 198.248C244.194 197.109 248.072 195.496 251.719 193.444L269.758 204.925L283.8 190.882L272.403 172.843C274.423 169.183 276.015 165.303 277.147 161.279L298.056 156.617ZM225.71 172.344C220.636 172.344 215.676 170.84 211.458 168.021C207.239 165.202 203.951 161.195 202.009 156.508C200.068 151.82 199.56 146.662 200.55 141.685C201.539 136.709 203.983 132.138 207.57 128.55C211.158 124.962 215.729 122.519 220.705 121.529C225.681 120.539 230.839 121.047 235.527 122.989C240.214 124.931 244.221 128.219 247.04 132.438C249.859 136.656 251.363 141.616 251.363 146.69C251.365 150.06 250.702 153.396 249.414 156.51C248.125 159.623 246.235 162.451 243.853 164.834C241.47 167.217 238.642 169.106 235.529 170.395C232.416 171.684 229.079 172.346 225.71 172.344Z" fill="#263238"/>
<path d="M166.327 292.954L167.169 277.191L150.838 272.589C150.08 269.35 148.958 266.207 147.493 263.219L157.361 249.366L146.782 237.636L132.004 245.939C129.179 244.161 126.159 242.717 123.002 241.633L120.18 224.886L104.429 224.163L99.8752 240.542C96.6303 241.27 93.4846 242.385 90.5058 243.863L76.6652 234.007L64.9119 244.575L73.2851 259.365C71.49 262.177 70.0406 265.196 68.9681 268.355L64.2241 269.138V290.487L67.6872 291.459C68.4056 294.709 69.5168 297.859 70.9961 300.841L64.1885 310.388L64.6392 318.56V318.631L71.6721 326.424L86.4734 318.062C89.2932 319.876 92.3242 321.337 95.4989 322.415L98.2741 338.498L98.4046 339.174L114.155 340.004L114.57 338.498L118.709 323.637C121.968 322.907 125.129 321.792 128.126 320.316L141.943 330.16L153.684 319.604L145.382 304.802C147.16 301.993 148.59 298.978 149.64 295.824L166.327 292.954ZM124.497 268.343C121.799 265.342 118.271 263.209 114.361 262.213C110.45 261.217 106.332 261.403 102.528 262.748C98.723 264.094 95.4028 266.537 92.987 269.769C90.5711 273.002 89.1683 276.878 88.9558 280.908C88.7434 284.938 89.7309 288.94 91.7935 292.409C93.856 295.877 96.901 298.656 100.543 300.394C104.185 302.132 108.261 302.75 112.254 302.171C116.248 301.592 119.98 299.841 122.978 297.14C126.982 293.523 129.39 288.467 129.674 283.079C129.959 277.691 128.097 272.409 124.497 268.391V268.343Z" fill="#263238"/>
<path d="M292.304 269.458C292.913 267.017 293.236 264.513 293.264 261.998L304.591 256.067L301.46 244.575L288.674 245.168C287.38 243.02 285.839 241.03 284.085 239.237L287.868 227.009L277.55 221.079L268.916 230.496C266.479 229.908 263.986 229.59 261.479 229.547L255.549 218.221L244.069 221.34L244.674 234.137C242.526 235.432 240.536 236.972 238.744 238.727L226.504 234.944L220.574 245.251L230.062 253.873C229.449 256.305 229.134 258.802 229.125 261.31L217.775 267.24L220.906 278.721L233.715 278.116C234.985 280.275 236.519 282.267 238.281 284.046L234.474 296.215L244.804 302.145L253.391 292.799C255.83 293.413 258.335 293.728 260.851 293.736L266.781 305.075L278.261 301.956L277.751 291.02L277.668 289.146C279.847 287.864 281.862 286.323 283.67 284.556L295.897 288.352L300.95 279.527L301.803 278.033L292.304 269.458ZM265.18 276.432C262.236 277.244 259.117 277.163 256.219 276.2C253.32 275.237 250.774 273.435 248.901 271.022C247.028 268.609 245.915 265.695 245.701 262.648C245.487 259.602 246.182 256.56 247.699 253.909C249.216 251.259 251.486 249.118 254.222 247.759C256.957 246.401 260.034 245.885 263.062 246.277C266.091 246.67 268.935 247.953 271.233 249.964C273.532 251.975 275.181 254.624 275.972 257.574C277.027 261.505 276.484 265.694 274.462 269.227C272.44 272.76 269.104 275.35 265.18 276.432Z" fill="#263238"/>
<path d="M423.618 289.668L426.227 273.894L410.263 267.477C409.901 264.115 409.132 260.81 407.974 257.633L419.467 244.836L410.168 231.789L394.323 238.514C391.693 236.405 388.818 234.621 385.761 233.2L384.835 216.015L369.062 213.405L362.598 229.298C359.251 229.692 355.96 230.468 352.79 231.611L339.957 220.118L326.971 229.417L333.707 245.251C331.853 247.565 330.243 250.065 328.904 252.711C328.726 253.079 328.536 253.446 328.37 253.814L311.197 254.763L308.576 270.513L311.161 271.557L324.539 276.954C324.904 280.3 325.673 283.589 326.828 286.75L315.312 299.631L324.622 312.677L340.455 305.917C343.077 308.044 345.949 309.845 349.006 311.278L349.896 328.381L365.658 330.99L372.11 315.215C375.464 314.849 378.762 314.076 381.93 312.915L394.739 324.407L407.785 315.097L401.048 299.251C403.194 296.618 405.007 293.73 406.444 290.652L423.618 289.668ZM379.38 288.956C376.061 291.337 372.112 292.681 368.03 292.817C363.948 292.952 359.917 291.875 356.448 289.72C352.979 287.565 350.226 284.429 348.539 280.71C346.852 276.99 346.305 272.854 346.969 268.824C347.633 264.794 349.476 261.051 352.267 258.069C355.058 255.087 358.67 253 362.648 252.071C366.625 251.142 370.788 251.414 374.611 252.851C378.434 254.289 381.744 256.828 384.124 260.147C387.312 264.6 388.6 270.137 387.706 275.539C386.812 280.942 383.808 285.768 379.356 288.956H379.38Z" fill="#263238"/>
<path d="M209.853 172.89H85.8209C77.2337 172.89 70.2725 179.851 70.2725 188.439V360.167C70.2725 368.754 77.2337 375.716 85.8209 375.716H209.853C218.44 375.716 225.401 368.754 225.401 360.167V188.439C225.401 179.851 218.44 172.89 209.853 172.89Z" fill="#F13939" stroke="#263238" stroke-width="1.10311" stroke-miterlimit="10"/>
<path opacity="0.2" d="M209.853 172.89H85.8209C77.2337 172.89 70.2725 179.851 70.2725 188.439V360.167C70.2725 368.754 77.2337 375.716 85.8209 375.716H209.853C218.44 375.716 225.401 368.754 225.401 360.167V188.439C225.401 179.851 218.44 172.89 209.853 172.89Z" fill="black"/>
<path d="M239.835 203.763V375.49C239.837 377.533 239.436 379.557 238.655 381.444C237.874 383.332 236.729 385.048 235.285 386.493C233.841 387.938 232.127 389.084 230.239 389.867C228.352 390.649 226.329 391.051 224.286 391.051H100.255C98.2128 391.05 96.1912 390.646 94.3054 389.863C92.4196 389.08 90.7064 387.934 89.2637 386.489C87.821 385.044 86.677 383.329 85.897 381.442C85.1171 379.555 84.7165 377.532 84.718 375.49V203.763C84.718 199.641 86.3545 195.688 89.2679 192.772C92.1812 189.856 96.133 188.217 100.255 188.214H224.286C228.41 188.214 232.365 189.852 235.281 192.768C238.197 195.684 239.835 199.639 239.835 203.763Z" fill="white" stroke="#263238" stroke-width="1.10311" stroke-linecap="round" stroke-linejoin="round"/>
<path d="M239.835 203.763V212.955H84.718V203.763C84.718 199.641 86.3545 195.688 89.2679 192.772C92.1812 189.856 96.133 188.217 100.255 188.214H224.286C228.41 188.214 232.365 189.852 235.281 192.768C238.197 195.684 239.835 199.639 239.835 203.763Z" fill="#F13939" stroke="#263238" stroke-width="1.10311" stroke-miterlimit="10"/>
<path d="M137.471 223.605H99.3057V230.01H137.471V223.605Z" fill="#F13939"/>
<path d="M137.471 280.998H99.3057V287.403H137.471V280.998Z" fill="#F13939"/>
<path d="M137.471 333.042H99.3057V339.446H137.471V333.042Z" fill="#F13939"/>
<path d="M207.694 239.463H99.3057V244.159H207.694V239.463Z" fill="#263238"/>
<path d="M188.149 248.441H99.3057V253.019H188.149V248.441Z" fill="#263238"/>
<path d="M199.784 257.277H99.3057V261.855H199.784V257.277Z" fill="#263238"/>
<path d="M199.784 266.101H99.3057V270.679H199.784V266.101Z" fill="#263238"/>
<path d="M207.694 291.506H99.3057V296.203H207.694V291.506Z" fill="#263238"/>
<path d="M188.149 300.485H99.3057V305.063H188.149V300.485Z" fill="#263238"/>
<path d="M199.784 309.321H99.3057V313.899H199.784V309.321Z" fill="#263238"/>
<path d="M207.694 348.65H99.3057V353.347H207.694V348.65Z" fill="#263238"/>
<path d="M188.149 357.64H99.3057V362.219H188.149V357.64Z" fill="#263238"/>
<path d="M199.784 366.476H99.3057V371.054H199.784V366.476Z" fill="#263238"/>
<path d="M414.663 69.1345V138.542C414.663 140.977 414.183 143.389 413.251 145.639C412.319 147.889 410.952 149.933 409.23 151.654C407.507 153.376 405.462 154.741 403.212 155.672C400.961 156.603 398.55 157.081 396.114 157.08H236.265C233.83 157.081 231.418 156.603 229.168 155.672C226.917 154.741 224.872 153.376 223.15 151.654C221.427 149.933 220.061 147.889 219.128 145.639C218.196 143.389 217.716 140.977 217.716 138.542V69.1345C217.719 64.2157 219.674 59.4994 223.152 56.0213C226.63 52.5432 231.347 50.5879 236.265 50.5847H396.114C401.034 50.5847 405.752 52.5391 409.23 56.0178C412.709 59.4966 414.663 64.2148 414.663 69.1345Z" fill="white" stroke="#222221" stroke-width="1.10311" stroke-miterlimit="10"/>
<path d="M414.663 69.1345V70.7238H217.716V69.1345C217.719 64.2157 219.674 59.4994 223.152 56.0213C226.63 52.5432 231.347 50.5879 236.265 50.5847H396.114C401.034 50.5847 405.752 52.5391 409.23 56.0178C412.709 59.4966 414.663 64.2148 414.663 69.1345Z" fill="#F13939" stroke="#263238" stroke-width="1.10311" stroke-miterlimit="10"/>
<path d="M246.655 63.9753C246.257 64.3741 245.75 64.6458 245.197 64.7562C244.645 64.8666 244.072 64.8107 243.552 64.5954C243.031 64.3802 242.586 64.0153 242.273 63.5471C241.96 63.0788 241.793 62.5282 241.793 61.9649C241.793 61.4016 241.96 60.851 242.273 60.3828C242.586 59.9145 243.031 59.5497 243.552 59.3344C244.072 59.1192 244.645 59.0632 245.197 59.1736C245.75 59.284 246.257 59.5558 246.655 59.9546C247.184 60.4897 247.481 61.2121 247.481 61.9649C247.481 62.7177 247.184 63.4401 246.655 63.9753Z" fill="#263238"/>
<path d="M259.843 63.9753C259.445 64.3741 258.938 64.6458 258.385 64.7562C257.833 64.8666 257.26 64.8107 256.74 64.5954C256.219 64.3802 255.774 64.0153 255.461 63.5471C255.148 63.0788 254.981 62.5282 254.981 61.9649C254.981 61.4016 255.148 60.851 255.461 60.3828C255.774 59.9145 256.219 59.5497 256.74 59.3344C257.26 59.1192 257.833 59.0632 258.385 59.1736C258.938 59.284 259.445 59.5558 259.843 59.9546C260.372 60.4897 260.669 61.2121 260.669 61.9649C260.669 62.7177 260.372 63.4401 259.843 63.9753Z" fill="#263238"/>
<path d="M273.031 63.9753C272.633 64.3741 272.126 64.6458 271.574 64.7562C271.021 64.8666 270.449 64.8107 269.928 64.5954C269.408 64.3802 268.963 64.0153 268.65 63.5471C268.337 63.0788 268.169 62.5282 268.169 61.9649C268.169 61.4016 268.337 60.851 268.65 60.3828C268.963 59.9145 269.408 59.5497 269.928 59.3344C270.449 59.1192 271.021 59.0632 271.574 59.1736C272.126 59.284 272.633 59.5558 273.031 59.9546C273.56 60.4897 273.857 61.2121 273.857 61.9649C273.857 62.7177 273.56 63.4401 273.031 63.9753Z" fill="#263238"/>
<path d="M294.652 83.4856H230.276V139.135H294.652V83.4856Z" stroke="#263238" stroke-width="1.10311" stroke-linecap="round" stroke-linejoin="round" stroke-dasharray="4.41 4.41"/>
<path d="M378.68 83.4856H304.591V87.3996H378.68V83.4856Z" fill="#263238"/>
<path d="M361.424 91.5864H304.591V95.4885H361.424V91.5864Z" fill="#263238"/>
<path d="M389.212 99.6514H304.591V103.601H389.212V99.6514Z" fill="#263238"/>
<path d="M376.652 107.515H304.591V111.464H376.652V107.515Z" fill="#263238"/>
<path d="M420.048 241.396H383.815C379.538 241.396 376.071 244.863 376.071 249.141V270.407C376.071 274.684 379.538 278.152 383.815 278.152H420.048C424.325 278.152 427.792 274.684 427.792 270.407V249.141C427.792 244.863 424.325 241.396 420.048 241.396Z" fill="white" stroke="#263238" stroke-width="1.10311" stroke-linecap="round" stroke-linejoin="round"/>
<path d="M392.758 252.45L382.807 258.689L392.046 266.872" stroke="#263238" stroke-width="1.10311" stroke-linecap="round" stroke-linejoin="round"/>
<path d="M410.88 267.465L419.822 259.851L409.504 253.09" stroke="#263238" stroke-width="1.10311" stroke-linecap="round" stroke-linejoin="round"/>
<path d="M397.597 272.162L404.938 249.129" stroke="#263238" stroke-width="1.10311" stroke-linecap="round" stroke-linejoin="round"/>
<path d="M321.076 472.604C321.076 472.604 286.682 482.46 281.879 484.168C277.514 485.71 265.678 489.861 256.795 488.568C255.937 488.445 255.089 488.263 254.257 488.023C245.255 485.342 241.211 482.84 240.025 477.182C238.839 471.525 243.322 467.35 247.639 464.681C251.956 462.013 275.367 459.226 275.367 459.226L281.025 460.886L321.076 472.604Z" fill="#F13939"/>
<path d="M256.795 488.568C255.937 488.445 255.089 488.263 254.257 488.023C245.255 485.342 241.211 482.84 240.025 477.182C238.839 471.525 243.322 467.35 247.639 464.681C251.956 462.013 275.367 459.226 275.367 459.226L281.025 460.886C275.901 463.258 256.83 464.551 252.667 466.947C248.505 469.343 246.5 473.85 248.955 479.993C250.272 483.196 253.782 486.339 256.795 488.568Z" fill="white"/>
<path d="M315.905 474.003C315.905 474.003 290.074 480.693 279.827 484.974C269.58 489.256 250.046 491.13 243.061 482.306C236.075 473.482 242.254 465.867 249.216 464.171C256.178 462.475 270.256 459.806 277.941 460.886" stroke="#263238" stroke-width="1.10311" stroke-linecap="round" stroke-linejoin="round"/>
<path d="M257.305 488.106C257.305 488.106 244.164 480.895 248.528 470.789C251.754 463.341 269.283 464.954 277.965 460.886" stroke="#263238" stroke-width="1.10311" stroke-linecap="round" stroke-linejoin="round"/>
<path d="M425.835 490.169C425.48 493.727 424.234 497.06 420.676 499.16C418.304 500.559 414.936 501.389 410.109 501.342C398.047 501.188 375.371 492.565 375.371 492.565L354.142 480.823L365.183 463.353L368.208 458.609L376.011 460.364C376.011 460.364 382.475 464.029 388.974 466.947C395.474 469.864 411.259 470.505 416.822 474.976C422.384 479.447 426.44 484.31 425.835 490.169Z" fill="#F13939"/>
<path d="M425.835 490.169C425.479 493.727 424.234 497.06 420.676 499.16C421.701 495.662 421.492 491.918 420.083 488.556C417.711 483.231 409.99 478.534 399.838 477.751C389.686 476.969 381.918 472.224 377.85 470.101C374.671 468.453 367.97 464.847 365.183 463.353L368.207 458.609L376.011 460.364C376.011 460.364 382.475 464.029 388.974 466.947C395.474 469.864 411.259 470.505 416.822 474.976C422.384 479.447 426.44 484.31 425.835 490.169Z" fill="white"/>
<path d="M358.85 484.121C374.131 493.004 391.021 498.772 408.543 501.093C412.41 501.555 416.905 501.627 419.49 498.721C420.178 497.882 420.69 496.913 420.996 495.871C421.301 494.83 421.394 493.738 421.269 492.66C420.807 487.204 416.217 482.887 411.188 480.717C406.16 478.546 400.621 478.048 395.272 476.85C389.952 475.651 384.81 473.769 379.973 471.252C376.13 469.248 372.418 466.816 368.184 465.915C363.95 465.013 358.909 466.105 356.644 469.805" stroke="#263238" stroke-width="1.10311" stroke-linecap="round" stroke-linejoin="round"/>
<path d="M418.067 500.203C420.054 499.252 421.791 497.849 423.14 496.107C424.489 494.365 425.412 492.332 425.835 490.169C426.606 485.034 423.677 479.863 419.561 476.708C415.446 473.553 410.287 472.058 405.199 471.003C400.111 469.947 394.904 469.236 390.03 467.302C382.594 464.385 375.252 458.644 367.496 460.696" stroke="#263238" stroke-width="1.10311" stroke-linecap="round" stroke-linejoin="round"/>
<path d="M382.807 300.378L346.883 286.715L346.433 286.537C346.433 286.537 346.563 285.588 346.67 284.165C346.895 281.295 347.014 276.622 345.662 275.044C343.657 272.672 337.988 274.665 332.45 272.127C326.911 269.588 316.676 274.131 316.676 274.131C316.676 274.131 309.275 272.767 306.002 278.104C304.341 282.41 304.911 288.779 304.911 288.779L304.235 289.016C299.953 290.617 276.66 299.382 271.738 302.904C266.295 306.759 260.27 346.338 258.337 357.961C256.403 369.584 252.964 380.057 254.707 384.054C256.451 388.051 281.475 407.324 295.873 412.294C310.271 417.263 361.329 415.852 361.329 415.852C361.329 415.852 362.159 415.626 363.641 415.152C372.276 412.377 402.91 400.919 419.17 374.02C419.194 374.067 403.444 322.439 382.807 300.378ZM285.745 366.951C283.1 368.825 284.559 376.084 284.559 376.084L280.064 372.122L291.355 344.357L296.17 365.706C296.17 365.706 288.39 365.089 285.745 366.951ZM376.071 384.588C374.825 385.228 379.629 371.885 377.352 368.861C375.075 365.836 368.208 366.121 368.208 366.121L368.789 362.48L372.857 341.605L374.209 340.004C374.209 340.004 388.18 363.95 390.682 372.395C390.682 372.419 375.454 384.588 376.071 384.588Z" fill="#F13939"/>
<path d="M314.98 213.785L296.431 233.473C296.431 233.473 293.881 235.739 294.889 241.444C295.897 247.148 298.269 252.118 300.06 252.45C301.478 252.698 302.914 252.825 304.353 252.83C304.353 252.83 308.326 261.44 311.149 264.82C311.149 264.82 312.122 278.116 311.6 281.805C311.6 281.805 318.265 287.628 324.539 288.364C330.813 289.099 340.502 279.492 340.502 279.492L342.874 267.726C342.874 267.726 348.567 259.092 348.947 256.791C349.326 254.49 351.936 255.083 353.216 253.944C354.497 252.806 357.45 247.741 357.96 242.95C358.47 238.158 358.482 232.655 352.92 234.268C348.093 232.975 351.117 222.775 351.117 222.775L342.637 215.303L314.98 213.785Z" fill="white"/>
<path opacity="0.5" d="M346.883 286.715C346.603 287.448 346.283 288.165 345.922 288.862C342.863 294.626 329.532 305.62 329.532 305.62L325.5 293.226L323.294 305.62C318.846 303.675 305.278 291.922 305.278 291.922C305.278 291.922 304.816 290.819 304.258 289.099L304.934 288.862C304.934 288.862 304.365 282.445 306.025 278.187C309.275 272.85 316.699 274.214 316.699 274.214C316.699 274.214 326.935 269.671 332.473 272.21C338.012 274.748 343.681 272.779 345.685 275.127C347.69 277.476 346.456 286.584 346.456 286.584L346.883 286.715Z" fill="white"/>
<path opacity="0.2" d="M382.807 300.378L346.883 286.715L346.433 286.537C346.433 286.537 346.563 285.588 346.67 284.165L345.923 288.826L340.609 296.037C346.289 298.129 351.834 300.569 357.213 303.343C359.789 304.723 361.889 306.845 363.243 309.434C364.597 312.023 365.14 314.959 364.804 317.861L358.186 374.494L355.47 406.648L363.665 415.152C372.299 412.377 402.934 400.919 419.194 374.02C419.194 374.067 403.444 322.439 382.807 300.378ZM376.071 384.588C374.826 385.228 379.629 371.885 377.352 368.861C375.075 365.836 368.208 366.121 368.208 366.121L368.789 362.48L372.857 341.605L374.209 340.004C374.209 340.004 388.18 363.95 390.682 372.395C390.682 372.419 375.454 384.588 376.071 384.588Z" fill="black"/>
<path opacity="0.2" d="M298.554 368.861L292.968 350.192C292.968 350.192 282.946 316.022 276.079 307.601L277.882 331.631C277.882 331.631 271.952 360.333 266.532 368.861C261.112 377.388 259.902 379.535 266.532 379.535C273.161 379.535 289.303 392.392 289.303 392.392L288.058 381.717L298.554 368.861ZM284.476 376.084L279.981 372.122L291.272 344.357L296.087 365.706C296.087 365.706 288.354 365.125 285.709 366.987C283.065 368.849 284.476 376.084 284.476 376.084Z" fill="black"/>
<path d="M311.149 264.821C311.149 264.821 312.169 274.89 311.149 279.492" stroke="#263238" stroke-width="1.10311" stroke-linecap="round" stroke-linejoin="round"/>
<path d="M341.534 278.14C341.545 274.902 341.919 271.676 342.649 268.521" stroke="#263238" stroke-width="1.10311" stroke-linecap="round" stroke-linejoin="round"/>
<path d="M344.227 221.293C344.227 221.293 350.323 228.943 350.003 234.731C349.682 240.519 349.232 247.374 349.386 254.087C349.54 260.8 338.605 274.866 332.983 276.112C327.362 277.357 322.523 277.677 318.929 274.084C315.336 270.49 311.742 265.497 307.069 259.092C302.397 252.687 303.511 238.633 303.511 238.633" stroke="#263238" stroke-width="1.10311" stroke-linecap="round" stroke-linejoin="round"/>
<path d="M329.544 243.982C329.173 246.083 329.014 248.217 329.07 250.351C328.947 252.149 329.506 253.927 330.635 255.332C331.311 256.02 332.284 256.578 332.414 257.526C332.411 257.953 332.292 258.372 332.071 258.737C331.85 259.102 331.534 259.401 331.157 259.602C330.396 259.986 329.663 260.422 328.963 260.907" stroke="#263238" stroke-width="1.10311" stroke-linecap="round" stroke-linejoin="round"/>
<path d="M319.902 261.642C319.902 261.642 320.602 266.185 326.686 267.133" stroke="#263238" stroke-width="1.10311" stroke-linecap="round" stroke-linejoin="round"/>
<path d="M320.53 247.445C320.53 248.762 319.961 249.817 319.261 249.817C318.561 249.817 317.992 248.762 317.992 247.445C317.992 246.129 318.561 245.073 319.261 245.073C319.961 245.073 320.53 246.14 320.53 247.445Z" fill="#263238"/>
<path d="M338.688 248.014C338.688 249.331 338.119 250.386 337.419 250.386C336.719 250.386 336.15 249.319 336.15 248.014C336.15 246.71 336.719 245.642 337.419 245.642C338.119 245.642 338.688 246.698 338.688 248.014Z" fill="#263238"/>
<path d="M335.023 242.262C335.023 242.262 340.953 236.332 345.923 242.95" stroke="#263238" stroke-width="2.20621" stroke-linecap="round" stroke-linejoin="round"/>
<path d="M322.535 242.38C322.535 242.38 318.787 238.182 312.881 242.38" stroke="#263238" stroke-width="2.20621" stroke-linecap="round" stroke-linejoin="round"/>
<path d="M311.6 270.419C311.6 270.419 315.217 280.381 323.294 283.216C331.37 286.051 342.092 271.356 342.092 271.356L341.534 269.446C341.534 269.446 334.502 278.579 326.686 277.025C318.87 275.471 311.149 264.868 311.149 264.868L311.6 270.419Z" fill="#263238"/>
<path d="M304.353 252.45C304.353 252.45 299.538 254.146 298.257 250.398C296.976 246.65 292.588 236.77 296.431 233.473C300.273 230.176 303.357 237.826 303.357 237.826" stroke="#263238" stroke-width="1.10311" stroke-linecap="round" stroke-linejoin="round"/>
<path d="M349.374 254.49C349.374 254.49 353.845 255.391 355.126 251.643C356.407 247.896 360.795 238.016 356.952 234.719C353.11 231.421 350.026 239.071 350.026 239.071" stroke="#263238" stroke-width="1.10311" stroke-linecap="round" stroke-linejoin="round"/>
<path d="M303.357 247.445C305.03 247.181 306.539 246.291 307.579 244.954C308.214 243.781 308.617 242.497 308.765 241.171C309.206 238.649 309.428 236.093 309.429 233.533C309.377 232.532 309.469 231.53 309.702 230.556C310.058 229.575 310.607 228.676 311.315 227.911C312.987 225.942 315.015 224.282 316.617 222.242C317.475 221.279 318.128 220.151 318.536 218.928C318.943 217.704 319.098 216.41 318.989 215.125C322.658 218.151 326.945 220.335 331.549 221.526C336.153 222.716 340.962 222.884 345.638 222.016C354.118 220.356 362.242 212.919 361.258 203.573C361.072 202.006 360.4 200.537 359.336 199.371C358.273 198.205 356.871 197.402 355.328 197.074C351.141 196.03 347.381 198.26 343.586 199.695C336.672 202.304 329.9 197.821 322.914 197.074C316.984 196.421 309.595 197.168 306.488 203.111C306.488 203.111 295.814 204.368 291.07 213.192C286.326 222.016 295.304 234.221 295.304 234.221C295.304 234.221 298.862 229.856 303.523 238.68L303.357 247.445Z" fill="#263238"/>
<path d="M344.962 219.039C344.962 219.039 342.187 233.509 349.433 240.519C349.433 240.519 351.022 236.166 352.624 235.098C353.778 232.53 354.267 229.713 354.045 226.906C353.823 224.1 352.898 221.394 351.355 219.039C345.994 210.618 344.962 219.039 344.962 219.039Z" fill="#263238"/>
<path opacity="0.2" d="M358.174 202.577C357.538 204.551 356.459 206.354 355.02 207.849C353.582 209.343 351.821 210.489 349.872 211.199C339.815 215.303 330.054 210.761 319.973 209.871C311.754 209.136 302.681 216.56 302.1 225.005" stroke="white" stroke-width="1.10311" stroke-linecap="round" stroke-linejoin="round"/>
<path opacity="0.2" d="M295.897 222.775C296.02 219.443 297.09 216.214 298.98 213.467C300.87 210.72 303.503 208.568 306.571 207.262" stroke="white" stroke-width="1.10311" stroke-linecap="round" stroke-linejoin="round"/>
<path d="M308.824 278.14C313.247 282.749 318.583 286.385 324.492 288.814C324.492 288.814 336.529 285.315 342.649 276.954" stroke="#263238" stroke-width="1.10311" stroke-linecap="round" stroke-linejoin="round"/>
<path d="M321.126 257.102C326.473 254.65 328.819 248.328 326.367 242.981C323.914 237.634 317.592 235.288 312.246 237.74C306.9 240.193 304.553 246.515 307.006 251.862C309.458 257.208 315.78 259.555 321.126 257.102Z" stroke="#263238" stroke-width="1.10311" stroke-linecap="round" stroke-linejoin="round"/>
<path d="M341.764 258.04C347.602 257.323 351.754 252.009 351.037 246.171C350.32 240.332 345.006 236.18 339.168 236.897C333.33 237.614 329.179 242.928 329.895 248.767C330.612 254.605 335.926 258.757 341.764 258.04Z" stroke="#263238" stroke-width="1.10311" stroke-linecap="round" stroke-linejoin="round"/>
<path d="M311.149 274.167C310.07 274.45 309.059 274.948 308.177 275.63C307.294 276.313 306.559 277.166 306.014 278.14C304.128 281.461 305.266 291.91 305.266 291.91C305.266 291.91 315.004 301.54 323.294 305.609L325.737 291.862L329.532 305.609C329.532 305.609 342.365 296.535 345.923 288.862C345.923 288.862 347.109 279.907 345.923 277.001C345.653 276.194 345.14 275.49 344.454 274.987C343.768 274.484 342.943 274.205 342.092 274.19" stroke="#263238" stroke-width="1.10311" stroke-linecap="round" stroke-linejoin="round"/>
<path d="M295.897 366.133C295.897 366.133 292.09 340.633 287.026 330.231" stroke="#263238" stroke-width="1.10311" stroke-linecap="round" stroke-linejoin="round"/>
<path d="M276.079 307.601C279.028 311.792 281.66 316.197 283.954 320.778" stroke="#263238" stroke-width="1.10311" stroke-linecap="round" stroke-linejoin="round"/>
<path d="M376.071 326.637C377.093 322.374 378.494 318.21 380.257 314.196" stroke="#263238" stroke-width="1.10311" stroke-linecap="round" stroke-linejoin="round"/>
<path d="M368.208 366.133C368.208 366.133 370.947 348.65 374.221 334.252" stroke="#263238" stroke-width="1.10311" stroke-linecap="round" stroke-linejoin="round"/>
<path d="M372.857 341.582C375.505 338.07 379.228 335.521 383.46 334.323" stroke="#263238" stroke-width="1.10311" stroke-linecap="round" stroke-linejoin="round"/>
<path d="M346.444 286.537C346.444 286.537 368.54 295.373 382.807 300.39C382.807 300.39 400.36 316.888 419.182 374.067C419.182 374.067 401.937 403.078 369.133 412.377" stroke="#263238" stroke-width="1.10311" stroke-linecap="round" stroke-linejoin="round"/>
<path d="M374.825 385.619L390.682 372.419C390.682 372.419 399.067 366.05 407.784 370.402" stroke="#263238" stroke-width="1.10311" stroke-linecap="round" stroke-linejoin="round"/>
<path d="M374.221 340.004C374.221 340.004 387.326 359.372 390.682 372.419" stroke="#263238" stroke-width="1.10311" stroke-linecap="round" stroke-linejoin="round"/>
<path d="M284.654 376.819L280.017 372.419C280.017 372.419 273.138 371.233 265.334 376.439" stroke="#263238" stroke-width="1.10311" stroke-linecap="round" stroke-linejoin="round"/>
<path d="M280.017 372.419C280.017 372.419 285.781 353.442 291.462 343.728" stroke="#263238" stroke-width="1.10311" stroke-linecap="round" stroke-linejoin="round"/>
<path d="M304.934 288.862C304.934 288.862 273.138 300.793 270.019 304.28C266.899 307.767 255.051 374.483 254.731 382.121C254.458 388.952 279.222 404.288 291.497 410.752" stroke="#263238" stroke-width="1.10311" stroke-linecap="round" stroke-linejoin="round"/>
<path d="M328.714 311.408C328.714 311.824 328.591 312.229 328.36 312.575C328.129 312.92 327.802 313.189 327.418 313.348C327.034 313.507 326.612 313.548 326.205 313.467C325.798 313.386 325.424 313.186 325.13 312.893C324.837 312.599 324.637 312.225 324.556 311.818C324.475 311.411 324.516 310.989 324.675 310.605C324.834 310.221 325.103 309.894 325.448 309.663C325.794 309.432 326.199 309.309 326.615 309.309C326.891 309.308 327.164 309.361 327.42 309.466C327.675 309.571 327.907 309.725 328.102 309.92C328.298 310.116 328.452 310.348 328.557 310.603C328.662 310.859 328.715 311.132 328.714 311.408Z" fill="#263238"/>
<path d="M365.503 423.158H293.157C292.708 423.158 292.276 422.979 291.958 422.661C291.64 422.343 291.461 421.911 291.461 421.462C291.461 421.012 291.64 420.58 291.958 420.262C292.276 419.944 292.708 419.766 293.157 419.766H365.503C365.953 419.766 366.385 419.944 366.703 420.262C367.021 420.58 367.199 421.012 367.199 421.462C367.199 421.911 367.021 422.343 366.703 422.661C366.385 422.979 365.953 423.158 365.503 423.158Z" fill="#263238"/>
<path d="M368.042 417.489L377.731 371.944C377.882 371.238 377.872 370.507 377.703 369.805C377.535 369.103 377.211 368.448 376.756 367.887C376.301 367.327 375.727 366.875 375.074 366.565C374.422 366.255 373.709 366.095 372.987 366.097H288.425C287.709 366.097 287.003 366.256 286.356 366.563C285.709 366.869 285.138 367.315 284.684 367.869C284.23 368.422 283.905 369.07 283.731 369.764C283.558 370.459 283.541 371.183 283.681 371.885L292.375 415.911C292.588 416.992 293.164 417.969 294.007 418.678C294.85 419.388 295.91 419.788 297.012 419.813L363.179 421.331C364.31 421.356 365.414 420.986 366.302 420.285C367.189 419.584 367.805 418.595 368.042 417.489Z" fill="white" stroke="#263238" stroke-width="1.10311" stroke-linecap="round" stroke-linejoin="round"/>
<path d="M337.182 392.38C337.179 393.714 336.782 395.018 336.039 396.126C335.296 397.234 334.241 398.097 333.008 398.606C331.774 399.115 330.418 399.247 329.11 398.985C327.801 398.724 326.6 398.08 325.657 397.136C324.715 396.191 324.073 394.989 323.814 393.68C323.554 392.371 323.689 391.015 324.2 389.783C324.711 388.55 325.576 387.497 326.685 386.756C327.795 386.015 329.099 385.619 330.433 385.619C331.321 385.619 332.199 385.794 333.019 386.134C333.838 386.474 334.583 386.972 335.209 387.6C335.836 388.228 336.333 388.973 336.671 389.794C337.01 390.614 337.183 391.493 337.182 392.38Z" fill="#263238"/>
<path d="M350.453 370.45H360.499" stroke="#263238" stroke-width="1.10311" stroke-linecap="round" stroke-linejoin="round"/>
<path d="M302.479 370.45H340.609" stroke="#263238" stroke-width="1.10311" stroke-linecap="round" stroke-linejoin="round"/>
<path d="M368.207 465.844L360.498 486.077C360.498 486.077 340.835 481.12 315.656 475.96C289.315 470.564 261.811 463.578 247.544 438.541C245.812 435.493 244.65 431.887 245.468 428.471C247.52 419.825 258.775 417.477 266.188 416.611C270.848 416.107 275.531 415.845 280.218 415.828C282.59 415.828 290.477 414.535 292.387 415.947C295.255 418.04 298.317 419.855 301.531 421.367C305.741 423.158 367.199 419.766 367.199 419.766C368.269 417.434 368.923 414.933 369.133 412.377C378.798 407.466 401.155 403.315 410.643 405.154C425.503 408.036 434.173 416.706 432.524 425.791C430.876 434.876 398.047 459.237 368.207 465.844Z" fill="#263238"/>
<path d="M368.208 465.844C368.208 465.844 349.504 460.886 334.229 450.567C318.953 440.249 307.022 428.27 285.733 430.748" stroke="white" stroke-width="1.10311" stroke-linecap="round" stroke-linejoin="round"/>
<path d="M330.73 448.136C340.384 445.361 347.464 439.11 355.209 433.121C363.378 426.564 372.15 420.798 381.408 415.899" stroke="white" stroke-width="1.10311" stroke-linecap="round" stroke-linejoin="round"/>
<path d="M327.326 249.129H330.161" stroke="#263238" stroke-width="1.10311" stroke-linecap="round" stroke-linejoin="round"/>
</g>
<defs>
<clipPath id="clip0_505_457">
<rect width="529" height="510" fill="white"/>
</clipPath>
</defs>
</svg>
