<svg width="207" height="34" viewBox="0 0 207 34" fill="none" xmlns="http://www.w3.org/2000/svg">
<g clip-path="url(#clip0_9_7576)">
<path d="M11.8724 4.87781C14.4225 3.42579 17.3674 2.78942 20.3005 3.05662C23.2337 3.32381 26.0101 4.48138 28.2464 6.36941L28.3255 6.34633C30.3763 5.83278 32.1781 5.6164 33.5667 5.72315C35.0814 5.83855 36.1742 6.34345 36.7015 7.27245C37.6537 8.94293 36.388 11.5309 33.5785 14.3641C33.4085 14.5343 33.2298 14.7074 33.0482 14.8834C33.4874 17.7007 33.043 20.5829 31.7744 23.1449C30.5058 25.7068 28.4735 27.8265 25.9489 29.2206C23.4244 30.6146 20.5279 31.2167 17.6466 30.9464C14.7653 30.6761 12.0364 29.5462 9.82456 27.7077C9.57553 27.7712 9.32944 27.8289 9.0892 27.8837C5.17514 28.7694 2.27768 28.4809 1.32553 26.8104C0.795257 25.8728 0.938812 24.6783 1.6478 23.3281C2.28354 22.1163 3.40561 20.7315 4.89096 19.2889L4.95248 19.2312C4.49444 16.4301 4.91079 13.5581 6.14644 10.9951C7.38209 8.43205 9.37881 6.29889 11.8724 4.87781ZM31.7123 16.0807C28.7623 18.5647 25.5632 20.7466 22.1644 22.5924H22.1468C18.7821 24.4888 15.2307 26.0441 11.5472 27.2345C13.5204 28.6232 15.8544 29.4298 18.276 29.56C20.6977 29.6903 23.107 29.1387 25.222 27.9699C27.337 26.801 29.0703 25.0633 30.2191 22.9599C31.368 20.8564 31.8849 18.4743 31.7093 16.0922L31.7123 16.0807ZM8.1019 23.582C9.09506 23.4579 11.4154 22.5607 14.1869 21.3143C16.0091 20.4978 17.9955 19.5024 19.932 18.4292C21.8685 17.3559 23.7406 16.2336 25.4017 15.1286C27.8451 13.487 29.7289 12.004 30.2621 11.1183C30.1898 10.9837 30.1136 10.8481 30.0335 10.7115C28.3405 7.82448 25.5521 5.71805 22.282 4.8556C19.0118 3.99314 15.5277 4.44531 12.596 6.11264C9.66441 7.77996 7.52543 10.5259 6.64965 13.7463C5.77387 16.9667 6.23303 20.3978 7.92612 23.2848L8.1019 23.5733V23.582Z" fill="white"/>
</g>
<path d="M61.3977 16.0824L57.5199 16.321C57.4536 15.9896 57.3111 15.6913 57.0923 15.4261C56.8736 15.1544 56.5852 14.9389 56.2273 14.7798C55.8759 14.6141 55.455 14.5312 54.9645 14.5312C54.3082 14.5312 53.7547 14.6705 53.304 14.9489C52.8532 15.2206 52.6278 15.5852 52.6278 16.0426C52.6278 16.4072 52.7737 16.7154 53.0653 16.9673C53.357 17.2192 53.8575 17.4214 54.5668 17.5739L57.331 18.1307C58.8158 18.4356 59.9228 18.9261 60.652 19.6023C61.3812 20.2784 61.7457 21.1667 61.7457 22.267C61.7457 23.268 61.4508 24.1463 60.8608 24.902C60.2775 25.6577 59.4754 26.2476 58.4545 26.6719C57.4403 27.0895 56.2704 27.2983 54.9446 27.2983C52.9228 27.2983 51.312 26.8774 50.1122 26.0355C48.919 25.187 48.2197 24.0336 48.0142 22.5753L52.1804 22.3565C52.3063 22.973 52.6113 23.4437 53.0952 23.7685C53.5791 24.0866 54.1989 24.2457 54.9545 24.2457C55.697 24.2457 56.2936 24.1032 56.7443 23.8182C57.2017 23.5265 57.4337 23.152 57.4403 22.6946C57.4337 22.3101 57.2713 21.9953 56.9531 21.75C56.6349 21.4981 56.1444 21.3059 55.4815 21.1733L52.8366 20.6463C51.3452 20.348 50.2348 19.831 49.5057 19.0952C48.7831 18.3594 48.4219 17.4214 48.4219 16.2812C48.4219 15.3002 48.687 14.455 49.2173 13.7457C49.7543 13.0365 50.5066 12.4896 51.4744 12.1051C52.4489 11.7206 53.589 11.5284 54.8949 11.5284C56.8239 11.5284 58.3419 11.9361 59.4489 12.7514C60.5625 13.5668 61.2121 14.6771 61.3977 16.0824ZM64.413 32.7273V11.7273H68.5891V14.2926H68.7781C68.9637 13.8816 69.2321 13.464 69.5835 13.0398C69.9414 12.6089 70.4054 12.2509 70.9755 11.9659C71.5522 11.6742 72.2681 11.5284 73.1232 11.5284C74.2369 11.5284 75.2643 11.8201 76.2056 12.4034C77.1469 12.9801 77.8993 13.8518 78.4627 15.0185C79.0262 16.1785 79.3079 17.6335 79.3079 19.3835C79.3079 21.0871 79.0328 22.5256 78.4826 23.6989C77.939 24.8655 77.1966 25.7505 76.2553 26.3537C75.3207 26.9503 74.2733 27.2486 73.1133 27.2486C72.2913 27.2486 71.592 27.1127 71.0153 26.8409C70.4452 26.5691 69.9779 26.2277 69.6133 25.8168C69.2487 25.3991 68.9703 24.9782 68.7781 24.554H68.6488V32.7273H64.413ZM68.5593 19.3636C68.5593 20.2718 68.6853 21.0639 68.9371 21.7401C69.189 22.4162 69.5536 22.9432 70.0309 23.321C70.5082 23.6922 71.0882 23.8778 71.771 23.8778C72.4603 23.8778 73.0437 23.6889 73.521 23.3111C73.9982 22.9266 74.3595 22.3963 74.6048 21.7202C74.8567 21.0374 74.9826 20.2519 74.9826 19.3636C74.9826 18.482 74.86 17.7064 74.6147 17.0369C74.3694 16.3674 74.0082 15.8437 73.5309 15.4659C73.0536 15.0881 72.467 14.8991 71.771 14.8991C71.0816 14.8991 70.4982 15.0814 70.021 15.446C69.5503 15.8106 69.189 16.3277 68.9371 16.9972C68.6853 17.6667 68.5593 18.4555 68.5593 19.3636ZM86.4869 27.2884C85.5124 27.2884 84.6441 27.1193 83.8817 26.7812C83.1194 26.4366 82.5162 25.9295 82.0721 25.2599C81.6346 24.5838 81.4158 23.742 81.4158 22.7344C81.4158 21.8859 81.5716 21.1733 81.8832 20.5966C82.1947 20.0199 82.619 19.5559 83.1559 19.2045C83.6928 18.8532 84.3027 18.5881 84.9854 18.4091C85.6748 18.2301 86.3974 18.1042 87.1531 18.0312C88.0413 17.9384 88.7572 17.8523 89.3008 17.7727C89.8443 17.6866 90.2388 17.5606 90.484 17.3949C90.7293 17.2292 90.8519 16.9839 90.8519 16.6591V16.5994C90.8519 15.9697 90.6531 15.4825 90.2553 15.1378C89.8642 14.7931 89.3074 14.6207 88.5849 14.6207C87.8226 14.6207 87.216 14.7898 86.7653 15.1278C86.3145 15.4593 86.0162 15.8769 85.8704 16.3807L81.9528 16.0625C82.1516 15.1345 82.5427 14.3324 83.1261 13.6562C83.7094 12.9735 84.4618 12.4498 85.3832 12.0852C86.3112 11.714 87.3851 11.5284 88.6048 11.5284C89.4532 11.5284 90.2653 11.6278 91.0408 11.8267C91.823 12.0256 92.5157 12.3338 93.119 12.7514C93.7288 13.169 94.2094 13.706 94.5607 14.3622C94.9121 15.0118 95.0877 15.7907 95.0877 16.6989V27H91.0707V24.8821H90.9513C90.7061 25.3594 90.378 25.7803 89.967 26.1449C89.556 26.5028 89.0621 26.7846 88.4854 26.9901C87.9087 27.1889 87.2425 27.2884 86.4869 27.2884ZM87.6999 24.3651C88.323 24.3651 88.8732 24.2424 89.3505 23.9972C89.8278 23.7453 90.2023 23.4072 90.4741 22.983C90.7459 22.5587 90.8817 22.0781 90.8817 21.5412V19.9205C90.7492 20.0066 90.5669 20.0862 90.3349 20.1591C90.1095 20.2254 89.8543 20.2884 89.5692 20.348C89.2842 20.401 88.9992 20.4508 88.7141 20.4972C88.4291 20.5369 88.1706 20.5734 87.9386 20.6065C87.4414 20.6795 87.0072 20.7955 86.636 20.9545C86.2648 21.1136 85.9764 21.3291 85.771 21.6009C85.5655 21.866 85.4627 22.1974 85.4627 22.5952C85.4627 23.1719 85.6715 23.6127 86.0891 23.9176C86.5134 24.2159 87.0503 24.3651 87.6999 24.3651ZM105.275 27.2983C103.71 27.2983 102.364 26.9669 101.238 26.304C100.117 25.6345 99.2556 24.7064 98.6523 23.5199C98.0558 22.3333 97.7575 20.9678 97.7575 19.4233C97.7575 17.8589 98.0591 16.4867 98.6623 15.3068C99.2721 14.1203 100.137 13.1955 101.257 12.5327C102.378 11.8632 103.71 11.5284 105.255 11.5284C106.587 11.5284 107.754 11.7704 108.755 12.2543C109.756 12.7382 110.548 13.4176 111.131 14.2926C111.714 15.1676 112.036 16.1951 112.096 17.375H108.098C107.986 16.6127 107.687 15.9995 107.203 15.5355C106.726 15.0649 106.1 14.8295 105.324 14.8295C104.668 14.8295 104.095 15.0085 103.604 15.3665C103.12 15.7178 102.742 16.2315 102.471 16.9077C102.199 17.5838 102.063 18.4025 102.063 19.3636C102.063 20.3381 102.195 21.1667 102.461 21.8494C102.732 22.5322 103.114 23.0526 103.604 23.4105C104.095 23.7685 104.668 23.9474 105.324 23.9474C105.808 23.9474 106.242 23.848 106.627 23.6491C107.018 23.4503 107.339 23.1619 107.591 22.7841C107.85 22.3996 108.019 21.9389 108.098 21.402H112.096C112.029 22.5687 111.711 23.5961 111.141 24.4844C110.578 25.366 109.799 26.0554 108.804 26.5526C107.81 27.0497 106.633 27.2983 105.275 27.2983ZM121.768 27.2983C120.197 27.2983 118.844 26.9801 117.711 26.3438C116.584 25.7008 115.716 24.7926 115.106 23.6193C114.496 22.4394 114.191 21.044 114.191 19.4332C114.191 17.8622 114.496 16.4834 115.106 15.2969C115.716 14.1103 116.574 13.1856 117.681 12.5227C118.795 11.8598 120.101 11.5284 121.599 11.5284C122.606 11.5284 123.544 11.6908 124.413 12.0156C125.288 12.3338 126.05 12.8144 126.7 13.4574C127.356 14.1004 127.866 14.9091 128.231 15.8835C128.595 16.8513 128.778 17.9848 128.778 19.2841V20.4474H115.881V17.8224H124.79C124.79 17.2126 124.658 16.6723 124.393 16.2017C124.128 15.7311 123.76 15.3632 123.289 15.098C122.825 14.8262 122.285 14.6903 121.668 14.6903C121.025 14.6903 120.455 14.8395 119.958 15.1378C119.468 15.4295 119.083 15.8239 118.805 16.321C118.526 16.8116 118.384 17.3584 118.377 17.9616V20.4574C118.377 21.2131 118.516 21.866 118.795 22.4162C119.08 22.9664 119.481 23.3906 119.998 23.6889C120.515 23.9872 121.128 24.1364 121.837 24.1364C122.308 24.1364 122.739 24.0701 123.13 23.9375C123.521 23.8049 123.856 23.6061 124.134 23.3409C124.413 23.0758 124.625 22.7509 124.771 22.3665L128.688 22.625C128.489 23.5663 128.082 24.3883 127.465 25.0909C126.855 25.7869 126.067 26.3305 125.099 26.7216C124.138 27.1061 123.027 27.2983 121.768 27.2983ZM138.423 33.0455C137.05 33.0455 135.874 32.8565 134.893 32.4787C133.918 32.1075 133.143 31.6004 132.566 30.9574C131.989 30.3144 131.615 29.5919 131.442 28.7898L135.36 28.2628C135.479 28.5677 135.668 28.8527 135.927 29.1179C136.185 29.383 136.527 29.5952 136.951 29.7543C137.382 29.92 137.906 30.0028 138.522 30.0028C139.443 30.0028 140.202 29.7775 140.799 29.3267C141.402 28.8826 141.704 28.1368 141.704 27.0895V24.2955H141.525C141.339 24.7197 141.061 25.1207 140.69 25.4986C140.318 25.8764 139.841 26.1847 139.258 26.4233C138.674 26.6619 137.978 26.7812 137.17 26.7812C136.023 26.7812 134.979 26.5161 134.038 25.9858C133.103 25.4489 132.357 24.6302 131.8 23.5298C131.25 22.4228 130.975 21.0241 130.975 19.3338C130.975 17.6037 131.257 16.1586 131.82 14.9986C132.384 13.8385 133.133 12.9702 134.067 12.3935C135.009 11.8168 136.04 11.5284 137.16 11.5284C138.015 11.5284 138.731 11.6742 139.308 11.9659C139.884 12.2509 140.348 12.6089 140.7 13.0398C141.058 13.464 141.333 13.8816 141.525 14.2926H141.684V11.7273H145.89V27.1491C145.89 28.4484 145.572 29.5355 144.935 30.4105C144.299 31.2855 143.417 31.9418 142.29 32.3793C141.17 32.8234 139.881 33.0455 138.423 33.0455ZM138.512 23.5994C139.195 23.5994 139.772 23.4304 140.242 23.0923C140.719 22.7476 141.084 22.2571 141.336 21.6207C141.594 20.9777 141.724 20.2088 141.724 19.3139C141.724 18.419 141.598 17.6435 141.346 16.9872C141.094 16.3243 140.729 15.8106 140.252 15.446C139.775 15.0814 139.195 14.8991 138.512 14.8991C137.816 14.8991 137.229 15.0881 136.752 15.4659C136.275 15.8371 135.914 16.3542 135.668 17.017C135.423 17.6799 135.3 18.4455 135.3 19.3139C135.3 20.1955 135.423 20.9579 135.668 21.6009C135.92 22.2372 136.281 22.7311 136.752 23.0824C137.229 23.4271 137.816 23.5994 138.512 23.5994ZM153.616 27.2884C152.641 27.2884 151.773 27.1193 151.011 26.7812C150.248 26.4366 149.645 25.9295 149.201 25.2599C148.763 24.5838 148.545 23.742 148.545 22.7344C148.545 21.8859 148.701 21.1733 149.012 20.5966C149.324 20.0199 149.748 19.5559 150.285 19.2045C150.822 18.8532 151.432 18.5881 152.114 18.4091C152.804 18.2301 153.526 18.1042 154.282 18.0312C155.17 17.9384 155.886 17.8523 156.43 17.7727C156.973 17.6866 157.368 17.5606 157.613 17.3949C157.858 17.2292 157.981 16.9839 157.981 16.6591V16.5994C157.981 15.9697 157.782 15.4825 157.384 15.1378C156.993 14.7931 156.436 14.6207 155.714 14.6207C154.951 14.6207 154.345 14.7898 153.894 15.1278C153.443 15.4593 153.145 15.8769 152.999 16.3807L149.082 16.0625C149.281 15.1345 149.672 14.3324 150.255 13.6562C150.838 12.9735 151.591 12.4498 152.512 12.0852C153.44 11.714 154.514 11.5284 155.734 11.5284C156.582 11.5284 157.394 11.6278 158.17 11.8267C158.952 12.0256 159.645 12.3338 160.248 12.7514C160.858 13.169 161.338 13.706 161.69 14.3622C162.041 15.0118 162.217 15.7907 162.217 16.6989V27H158.2V24.8821H158.08C157.835 25.3594 157.507 25.7803 157.096 26.1449C156.685 26.5028 156.191 26.7846 155.614 26.9901C155.038 27.1889 154.371 27.2884 153.616 27.2884ZM154.829 24.3651C155.452 24.3651 156.002 24.2424 156.479 23.9972C156.957 23.7453 157.331 23.4072 157.603 22.983C157.875 22.5587 158.011 22.0781 158.011 21.5412V19.9205C157.878 20.0066 157.696 20.0862 157.464 20.1591C157.238 20.2254 156.983 20.2884 156.698 20.348C156.413 20.401 156.128 20.4508 155.843 20.4972C155.558 20.5369 155.299 20.5734 155.067 20.6065C154.57 20.6795 154.136 20.7955 153.765 20.9545C153.394 21.1136 153.105 21.3291 152.9 21.6009C152.694 21.866 152.592 22.1974 152.592 22.5952C152.592 23.1719 152.8 23.6127 153.218 23.9176C153.642 24.2159 154.179 24.3651 154.829 24.3651ZM165.503 27V11.7273H169.54V14.4219H169.719C170.037 13.527 170.567 12.821 171.31 12.304C172.052 11.7869 172.94 11.5284 173.974 11.5284C175.022 11.5284 175.913 11.7902 176.649 12.3139C177.385 12.831 177.875 13.5336 178.121 14.4219H178.28C178.591 13.5469 179.155 12.8475 179.97 12.3239C180.792 11.7936 181.763 11.5284 182.884 11.5284C184.309 11.5284 185.465 11.9825 186.354 12.8906C187.249 13.7921 187.696 15.0715 187.696 16.7287V27H183.47V17.5639C183.47 16.7154 183.245 16.0791 182.794 15.6548C182.343 15.2306 181.78 15.0185 181.104 15.0185C180.335 15.0185 179.735 15.2637 179.304 15.7543C178.873 16.2382 178.658 16.8778 178.658 17.6733V27H174.551V17.4744C174.551 16.7254 174.336 16.1288 173.905 15.6847C173.481 15.2405 172.92 15.0185 172.224 15.0185C171.754 15.0185 171.33 15.1378 170.952 15.3764C170.58 15.6084 170.286 15.9366 170.067 16.3608C169.848 16.7784 169.739 17.2689 169.739 17.8324V27H165.503ZM198.002 27.2983C196.431 27.2983 195.079 26.9801 193.945 26.3438C192.818 25.7008 191.95 24.7926 191.34 23.6193C190.73 22.4394 190.425 21.044 190.425 19.4332C190.425 17.8622 190.73 16.4834 191.34 15.2969C191.95 14.1103 192.808 13.1856 193.915 12.5227C195.029 11.8598 196.335 11.5284 197.833 11.5284C198.841 11.5284 199.779 11.6908 200.647 12.0156C201.522 12.3338 202.284 12.8144 202.934 13.4574C203.59 14.1004 204.101 14.9091 204.465 15.8835C204.83 16.8513 205.012 17.9848 205.012 19.2841V20.4474H192.116V17.8224H201.025C201.025 17.2126 200.892 16.6723 200.627 16.2017C200.362 15.7311 199.994 15.3632 199.523 15.098C199.059 14.8262 198.519 14.6903 197.903 14.6903C197.26 14.6903 196.69 14.8395 196.192 15.1378C195.702 15.4295 195.317 15.8239 195.039 16.321C194.761 16.8116 194.618 17.3584 194.612 17.9616V20.4574C194.612 21.2131 194.751 21.866 195.029 22.4162C195.314 22.9664 195.715 23.3906 196.232 23.6889C196.749 23.9872 197.362 24.1364 198.072 24.1364C198.542 24.1364 198.973 24.0701 199.364 23.9375C199.755 23.8049 200.09 23.6061 200.369 23.3409C200.647 23.0758 200.859 22.7509 201.005 22.3665L204.923 22.625C204.724 23.5663 204.316 24.3883 203.7 25.0909C203.09 25.7869 202.301 26.3305 201.333 26.7216C200.372 27.1061 199.262 27.2983 198.002 27.2983Z" fill="white"/>
<defs>
<clipPath id="clip0_9_7576">
<rect width="36" height="28" fill="white" transform="translate(1 3)"/>
</clipPath>
</defs>
</svg>
